<mxfile host="app.diagrams.net" agent="Mozilla/5.0 (Windows NT 10.0; Win64; x64) AppleWebKit/537.36 (KHTML, like Gecko) Chrome/133.0.0.0 Safari/537.36" version="26.0.11" pages="2">
  <diagram id="C5RBs43oDa-KdzZeNtuy" name="Flow Diagram">
    <mxGraphModel dx="2140" dy="696" grid="1" gridSize="10" guides="1" tooltips="1" connect="1" arrows="1" fold="1" page="1" pageScale="1" pageWidth="827" pageHeight="1169" math="0" shadow="0">
      <root>
        <mxCell id="WIyWlLk6GJQsqaUBKTNV-0" />
        <mxCell id="WIyWlLk6GJQsqaUBKTNV-1" parent="WIyWlLk6GJQsqaUBKTNV-0" />
        <mxCell id="WIyWlLk6GJQsqaUBKTNV-2" value="" style="rounded=0;html=1;jettySize=auto;orthogonalLoop=1;fontSize=11;endArrow=block;endFill=0;endSize=8;strokeWidth=1;shadow=0;labelBackgroundColor=none;edgeStyle=orthogonalEdgeStyle;" parent="WIyWlLk6GJQsqaUBKTNV-1" source="WIyWlLk6GJQsqaUBKTNV-3" target="WIyWlLk6GJQsqaUBKTNV-6" edge="1">
          <mxGeometry relative="1" as="geometry" />
        </mxCell>
        <mxCell id="WIyWlLk6GJQsqaUBKTNV-3" value="Create Account" style="rounded=1;whiteSpace=wrap;html=1;fontSize=12;glass=0;strokeWidth=1;shadow=0;" parent="WIyWlLk6GJQsqaUBKTNV-1" vertex="1">
          <mxGeometry x="160" y="80" width="120" height="40" as="geometry" />
        </mxCell>
        <mxCell id="WIyWlLk6GJQsqaUBKTNV-4" value="Yes" style="rounded=0;html=1;jettySize=auto;orthogonalLoop=1;fontSize=11;endArrow=block;endFill=0;endSize=8;strokeWidth=1;shadow=0;labelBackgroundColor=none;edgeStyle=orthogonalEdgeStyle;" parent="WIyWlLk6GJQsqaUBKTNV-1" source="WIyWlLk6GJQsqaUBKTNV-6" target="WIyWlLk6GJQsqaUBKTNV-10" edge="1">
          <mxGeometry y="20" relative="1" as="geometry">
            <mxPoint as="offset" />
          </mxGeometry>
        </mxCell>
        <mxCell id="WIyWlLk6GJQsqaUBKTNV-5" value="Invalid" style="edgeStyle=orthogonalEdgeStyle;rounded=0;html=1;jettySize=auto;orthogonalLoop=1;fontSize=11;endArrow=block;endFill=0;endSize=8;strokeWidth=1;shadow=0;labelBackgroundColor=none;" parent="WIyWlLk6GJQsqaUBKTNV-1" source="WIyWlLk6GJQsqaUBKTNV-6" target="WIyWlLk6GJQsqaUBKTNV-7" edge="1">
          <mxGeometry y="10" relative="1" as="geometry">
            <mxPoint as="offset" />
          </mxGeometry>
        </mxCell>
        <mxCell id="WIyWlLk6GJQsqaUBKTNV-6" value="Enter Email" style="rhombus;whiteSpace=wrap;html=1;shadow=0;fontFamily=Helvetica;fontSize=12;align=center;strokeWidth=1;spacing=6;spacingTop=-4;" parent="WIyWlLk6GJQsqaUBKTNV-1" vertex="1">
          <mxGeometry x="170" y="170" width="100" height="80" as="geometry" />
        </mxCell>
        <mxCell id="WIyWlLk6GJQsqaUBKTNV-7" value="Enter Valid Email" style="rounded=1;whiteSpace=wrap;html=1;fontSize=12;glass=0;strokeWidth=1;shadow=0;" parent="WIyWlLk6GJQsqaUBKTNV-1" vertex="1">
          <mxGeometry x="320" y="190" width="120" height="40" as="geometry" />
        </mxCell>
        <mxCell id="WIyWlLk6GJQsqaUBKTNV-8" value="Invalid" style="rounded=0;html=1;jettySize=auto;orthogonalLoop=1;fontSize=11;endArrow=block;endFill=0;endSize=8;strokeWidth=1;shadow=0;labelBackgroundColor=none;edgeStyle=orthogonalEdgeStyle;" parent="WIyWlLk6GJQsqaUBKTNV-1" source="WIyWlLk6GJQsqaUBKTNV-10" target="WIyWlLk6GJQsqaUBKTNV-11" edge="1">
          <mxGeometry x="0.3333" y="20" relative="1" as="geometry">
            <mxPoint as="offset" />
          </mxGeometry>
        </mxCell>
        <mxCell id="WIyWlLk6GJQsqaUBKTNV-9" value="Yes" style="edgeStyle=orthogonalEdgeStyle;rounded=0;html=1;jettySize=auto;orthogonalLoop=1;fontSize=11;endArrow=block;endFill=0;endSize=8;strokeWidth=1;shadow=0;labelBackgroundColor=none;" parent="WIyWlLk6GJQsqaUBKTNV-1" source="WIyWlLk6GJQsqaUBKTNV-10" target="WIyWlLk6GJQsqaUBKTNV-12" edge="1">
          <mxGeometry y="10" relative="1" as="geometry">
            <mxPoint as="offset" />
          </mxGeometry>
        </mxCell>
        <mxCell id="WIyWlLk6GJQsqaUBKTNV-10" value="Enter Password" style="rhombus;whiteSpace=wrap;html=1;shadow=0;fontFamily=Helvetica;fontSize=12;align=center;strokeWidth=1;spacing=6;spacingTop=-4;" parent="WIyWlLk6GJQsqaUBKTNV-1" vertex="1">
          <mxGeometry x="170" y="290" width="100" height="80" as="geometry" />
        </mxCell>
        <mxCell id="WIyWlLk6GJQsqaUBKTNV-11" value="Enter Valid Password" style="rounded=1;whiteSpace=wrap;html=1;fontSize=12;glass=0;strokeWidth=1;shadow=0;" parent="WIyWlLk6GJQsqaUBKTNV-1" vertex="1">
          <mxGeometry x="160" y="430" width="120" height="40" as="geometry" />
        </mxCell>
        <mxCell id="-ekNPSrUyCJ8KPP-WbpY-6" style="edgeStyle=orthogonalEdgeStyle;rounded=0;orthogonalLoop=1;jettySize=auto;html=1;exitX=1;exitY=0.5;exitDx=0;exitDy=0;entryX=0;entryY=0.5;entryDx=0;entryDy=0;" parent="WIyWlLk6GJQsqaUBKTNV-1" source="WIyWlLk6GJQsqaUBKTNV-12" target="-ekNPSrUyCJ8KPP-WbpY-3" edge="1">
          <mxGeometry relative="1" as="geometry" />
        </mxCell>
        <mxCell id="WIyWlLk6GJQsqaUBKTNV-12" value="Account Created!" style="rounded=1;whiteSpace=wrap;html=1;fontSize=12;glass=0;strokeWidth=1;shadow=0;" parent="WIyWlLk6GJQsqaUBKTNV-1" vertex="1">
          <mxGeometry x="320" y="310" width="120" height="40" as="geometry" />
        </mxCell>
        <mxCell id="-ekNPSrUyCJ8KPP-WbpY-0" value="Start/&lt;div&gt;Download App&lt;/div&gt;" style="ellipse;whiteSpace=wrap;html=1;aspect=fixed;" parent="WIyWlLk6GJQsqaUBKTNV-1" vertex="1">
          <mxGeometry x="10" y="60" width="80" height="80" as="geometry" />
        </mxCell>
        <mxCell id="-ekNPSrUyCJ8KPP-WbpY-1" value="End" style="ellipse;whiteSpace=wrap;html=1;aspect=fixed;" parent="WIyWlLk6GJQsqaUBKTNV-1" vertex="1">
          <mxGeometry x="1770" y="440" width="80" height="80" as="geometry" />
        </mxCell>
        <mxCell id="-ekNPSrUyCJ8KPP-WbpY-3" value="Create Profile" style="rounded=1;whiteSpace=wrap;html=1;" parent="WIyWlLk6GJQsqaUBKTNV-1" vertex="1">
          <mxGeometry x="480" y="80" width="120" height="40" as="geometry" />
        </mxCell>
        <mxCell id="-ekNPSrUyCJ8KPP-WbpY-4" value="" style="rounded=0;html=1;jettySize=auto;orthogonalLoop=1;fontSize=11;endArrow=block;endFill=0;endSize=8;strokeWidth=1;shadow=0;labelBackgroundColor=none;edgeStyle=orthogonalEdgeStyle;" parent="WIyWlLk6GJQsqaUBKTNV-1" edge="1">
          <mxGeometry relative="1" as="geometry">
            <mxPoint x="540" y="120" as="sourcePoint" />
            <mxPoint x="540" y="170" as="targetPoint" />
          </mxGeometry>
        </mxCell>
        <mxCell id="-ekNPSrUyCJ8KPP-WbpY-5" value="Survey&lt;div&gt;questions/update bio&lt;/div&gt;" style="rhombus;whiteSpace=wrap;html=1;shadow=0;fontFamily=Helvetica;fontSize=12;align=center;strokeWidth=1;spacing=6;spacingTop=-4;" parent="WIyWlLk6GJQsqaUBKTNV-1" vertex="1">
          <mxGeometry x="490" y="170" width="100" height="80" as="geometry" />
        </mxCell>
        <mxCell id="-ekNPSrUyCJ8KPP-WbpY-7" value="Warning message: Bio increase chances of a match!" style="rounded=1;whiteSpace=wrap;html=1;fontSize=12;glass=0;strokeWidth=1;shadow=0;" parent="WIyWlLk6GJQsqaUBKTNV-1" vertex="1">
          <mxGeometry x="640" y="190" width="120" height="40" as="geometry" />
        </mxCell>
        <mxCell id="-ekNPSrUyCJ8KPP-WbpY-9" value="" style="edgeStyle=orthogonalEdgeStyle;rounded=0;html=1;jettySize=auto;orthogonalLoop=1;fontSize=11;endArrow=block;endFill=0;endSize=8;strokeWidth=1;shadow=0;labelBackgroundColor=none;" parent="WIyWlLk6GJQsqaUBKTNV-1" edge="1">
          <mxGeometry y="10" relative="1" as="geometry">
            <mxPoint as="offset" />
            <mxPoint x="270" y="210" as="sourcePoint" />
            <mxPoint x="320" y="210" as="targetPoint" />
          </mxGeometry>
        </mxCell>
        <mxCell id="-ekNPSrUyCJ8KPP-WbpY-11" value="No/skip" style="edgeStyle=orthogonalEdgeStyle;rounded=0;html=1;jettySize=auto;orthogonalLoop=1;fontSize=11;endArrow=block;endFill=0;endSize=8;strokeWidth=1;shadow=0;labelBackgroundColor=none;" parent="WIyWlLk6GJQsqaUBKTNV-1" edge="1">
          <mxGeometry y="10" relative="1" as="geometry">
            <mxPoint as="offset" />
            <mxPoint x="590" y="209.38" as="sourcePoint" />
            <mxPoint x="640" y="209.38" as="targetPoint" />
          </mxGeometry>
        </mxCell>
        <mxCell id="-ekNPSrUyCJ8KPP-WbpY-12" value="Yes" style="rounded=0;html=1;jettySize=auto;orthogonalLoop=1;fontSize=11;endArrow=block;endFill=0;endSize=8;strokeWidth=1;shadow=0;labelBackgroundColor=none;edgeStyle=orthogonalEdgeStyle;" parent="WIyWlLk6GJQsqaUBKTNV-1" edge="1">
          <mxGeometry y="20" relative="1" as="geometry">
            <mxPoint as="offset" />
            <mxPoint x="539.37" y="250" as="sourcePoint" />
            <mxPoint x="539.37" y="290" as="targetPoint" />
          </mxGeometry>
        </mxCell>
        <mxCell id="-ekNPSrUyCJ8KPP-WbpY-13" value="Attach photos/videos" style="rhombus;whiteSpace=wrap;html=1;shadow=0;fontFamily=Helvetica;fontSize=12;align=center;strokeWidth=1;spacing=6;spacingTop=-4;" parent="WIyWlLk6GJQsqaUBKTNV-1" vertex="1">
          <mxGeometry x="490" y="290" width="100" height="80" as="geometry" />
        </mxCell>
        <mxCell id="-ekNPSrUyCJ8KPP-WbpY-14" value="No/skip" style="edgeStyle=orthogonalEdgeStyle;rounded=0;html=1;jettySize=auto;orthogonalLoop=1;fontSize=11;endArrow=block;endFill=0;endSize=8;strokeWidth=1;shadow=0;labelBackgroundColor=none;" parent="WIyWlLk6GJQsqaUBKTNV-1" edge="1">
          <mxGeometry y="10" relative="1" as="geometry">
            <mxPoint as="offset" />
            <mxPoint x="590" y="329.38" as="sourcePoint" />
            <mxPoint x="640" y="329.38" as="targetPoint" />
          </mxGeometry>
        </mxCell>
        <mxCell id="-ekNPSrUyCJ8KPP-WbpY-15" value="Warning message: images increase chances of a match!" style="rounded=1;whiteSpace=wrap;html=1;fontSize=12;glass=0;strokeWidth=1;shadow=0;" parent="WIyWlLk6GJQsqaUBKTNV-1" vertex="1">
          <mxGeometry x="640" y="310" width="120" height="40" as="geometry" />
        </mxCell>
        <mxCell id="-ekNPSrUyCJ8KPP-WbpY-16" value="Yes" style="rounded=0;html=1;jettySize=auto;orthogonalLoop=1;fontSize=11;endArrow=block;endFill=0;endSize=8;strokeWidth=1;shadow=0;labelBackgroundColor=none;edgeStyle=orthogonalEdgeStyle;" parent="WIyWlLk6GJQsqaUBKTNV-1" edge="1">
          <mxGeometry y="20" relative="1" as="geometry">
            <mxPoint as="offset" />
            <mxPoint x="539.38" y="370" as="sourcePoint" />
            <mxPoint x="539.38" y="410" as="targetPoint" />
          </mxGeometry>
        </mxCell>
        <mxCell id="-ekNPSrUyCJ8KPP-WbpY-17" value="Verify your account" style="rhombus;whiteSpace=wrap;html=1;shadow=0;fontFamily=Helvetica;fontSize=12;align=center;strokeWidth=1;spacing=6;spacingTop=-4;" parent="WIyWlLk6GJQsqaUBKTNV-1" vertex="1">
          <mxGeometry x="490" y="410" width="100" height="80" as="geometry" />
        </mxCell>
        <mxCell id="-ekNPSrUyCJ8KPP-WbpY-18" value="Skip" style="edgeStyle=orthogonalEdgeStyle;rounded=0;html=1;jettySize=auto;orthogonalLoop=1;fontSize=11;endArrow=block;endFill=0;endSize=8;strokeWidth=1;shadow=0;labelBackgroundColor=none;" parent="WIyWlLk6GJQsqaUBKTNV-1" edge="1">
          <mxGeometry y="10" relative="1" as="geometry">
            <mxPoint as="offset" />
            <mxPoint x="590" y="449.38" as="sourcePoint" />
            <mxPoint x="640" y="449.38" as="targetPoint" />
          </mxGeometry>
        </mxCell>
        <mxCell id="-ekNPSrUyCJ8KPP-WbpY-19" value="Error" style="rounded=0;html=1;jettySize=auto;orthogonalLoop=1;fontSize=11;endArrow=block;endFill=0;endSize=8;strokeWidth=1;shadow=0;labelBackgroundColor=none;edgeStyle=orthogonalEdgeStyle;entryX=1;entryY=0.5;entryDx=0;entryDy=0;" parent="WIyWlLk6GJQsqaUBKTNV-1" target="-ekNPSrUyCJ8KPP-WbpY-20" edge="1">
          <mxGeometry y="20" relative="1" as="geometry">
            <mxPoint as="offset" />
            <mxPoint x="490" y="450" as="sourcePoint" />
            <mxPoint x="490" y="490" as="targetPoint" />
          </mxGeometry>
        </mxCell>
        <mxCell id="-ekNPSrUyCJ8KPP-WbpY-20" value="Try again!&lt;div&gt;Follow instructions&lt;/div&gt;" style="rounded=1;whiteSpace=wrap;html=1;fontSize=12;glass=0;strokeWidth=1;shadow=0;" parent="WIyWlLk6GJQsqaUBKTNV-1" vertex="1">
          <mxGeometry x="320" y="430" width="120" height="40" as="geometry" />
        </mxCell>
        <mxCell id="EXqV8uLEdETQ28XEE5cS-0" value="Warning message:&lt;div&gt;Verification proves you&#39;re real!&lt;/div&gt;" style="rounded=1;whiteSpace=wrap;html=1;fontSize=12;glass=0;strokeWidth=1;shadow=0;" parent="WIyWlLk6GJQsqaUBKTNV-1" vertex="1">
          <mxGeometry x="640" y="430" width="120" height="40" as="geometry" />
        </mxCell>
        <mxCell id="EXqV8uLEdETQ28XEE5cS-1" value="Verified!" style="rounded=0;html=1;jettySize=auto;orthogonalLoop=1;fontSize=11;endArrow=block;endFill=0;endSize=8;strokeWidth=1;shadow=0;labelBackgroundColor=none;edgeStyle=orthogonalEdgeStyle;" parent="WIyWlLk6GJQsqaUBKTNV-1" source="EXqV8uLEdETQ28XEE5cS-2" edge="1">
          <mxGeometry y="20" relative="1" as="geometry">
            <mxPoint as="offset" />
            <mxPoint x="539.38" y="490" as="sourcePoint" />
            <mxPoint x="539.38" y="530" as="targetPoint" />
          </mxGeometry>
        </mxCell>
        <mxCell id="EXqV8uLEdETQ28XEE5cS-3" value="" style="rounded=0;html=1;jettySize=auto;orthogonalLoop=1;fontSize=11;endArrow=block;endFill=0;endSize=8;strokeWidth=1;shadow=0;labelBackgroundColor=none;edgeStyle=orthogonalEdgeStyle;" parent="WIyWlLk6GJQsqaUBKTNV-1" target="EXqV8uLEdETQ28XEE5cS-2" edge="1">
          <mxGeometry y="20" relative="1" as="geometry">
            <mxPoint as="offset" />
            <mxPoint x="539.38" y="490" as="sourcePoint" />
            <mxPoint x="539.38" y="530" as="targetPoint" />
          </mxGeometry>
        </mxCell>
        <mxCell id="EXqV8uLEdETQ28XEE5cS-55" style="edgeStyle=orthogonalEdgeStyle;rounded=0;orthogonalLoop=1;jettySize=auto;html=1;exitX=0.5;exitY=1;exitDx=0;exitDy=0;entryX=0.5;entryY=0;entryDx=0;entryDy=0;" parent="WIyWlLk6GJQsqaUBKTNV-1" source="EXqV8uLEdETQ28XEE5cS-2" target="EXqV8uLEdETQ28XEE5cS-54" edge="1">
          <mxGeometry relative="1" as="geometry" />
        </mxCell>
        <mxCell id="EXqV8uLEdETQ28XEE5cS-2" value="Verification approval stamp attached to profile" style="rounded=1;whiteSpace=wrap;html=1;fontSize=12;glass=0;strokeWidth=1;shadow=0;" parent="WIyWlLk6GJQsqaUBKTNV-1" vertex="1">
          <mxGeometry x="480" y="530" width="120" height="40" as="geometry" />
        </mxCell>
        <mxCell id="EXqV8uLEdETQ28XEE5cS-4" value="Yes" style="edgeStyle=orthogonalEdgeStyle;rounded=0;html=1;jettySize=auto;orthogonalLoop=1;fontSize=11;endArrow=block;endFill=0;endSize=8;strokeWidth=1;shadow=0;labelBackgroundColor=none;entryX=0;entryY=0.5;entryDx=0;entryDy=0;" parent="WIyWlLk6GJQsqaUBKTNV-1" target="WIyWlLk6GJQsqaUBKTNV-3" edge="1">
          <mxGeometry y="10" relative="1" as="geometry">
            <mxPoint as="offset" />
            <mxPoint x="90" y="99.38" as="sourcePoint" />
            <mxPoint x="140" y="99.38" as="targetPoint" />
          </mxGeometry>
        </mxCell>
        <mxCell id="EXqV8uLEdETQ28XEE5cS-5" value="Browse through other musician/band profiles" style="rounded=1;whiteSpace=wrap;html=1;" parent="WIyWlLk6GJQsqaUBKTNV-1" vertex="1">
          <mxGeometry x="1000" y="80" width="120" height="40" as="geometry" />
        </mxCell>
        <mxCell id="EXqV8uLEdETQ28XEE5cS-68" style="edgeStyle=orthogonalEdgeStyle;rounded=0;orthogonalLoop=1;jettySize=auto;html=1;exitX=0;exitY=0.5;exitDx=0;exitDy=0;entryX=0.5;entryY=0;entryDx=0;entryDy=0;" parent="WIyWlLk6GJQsqaUBKTNV-1" source="EXqV8uLEdETQ28XEE5cS-6" target="-ekNPSrUyCJ8KPP-WbpY-3" edge="1">
          <mxGeometry relative="1" as="geometry">
            <Array as="points">
              <mxPoint x="-20" y="775" />
              <mxPoint x="-20" y="40" />
              <mxPoint x="540" y="40" />
            </Array>
          </mxGeometry>
        </mxCell>
        <mxCell id="EXqV8uLEdETQ28XEE5cS-6" value="The rest of the band should create their accounts!" style="rounded=1;whiteSpace=wrap;html=1;" parent="WIyWlLk6GJQsqaUBKTNV-1" vertex="1">
          <mxGeometry x="320" y="755" width="120" height="40" as="geometry" />
        </mxCell>
        <mxCell id="EXqV8uLEdETQ28XEE5cS-8" value="" style="rounded=0;html=1;jettySize=auto;orthogonalLoop=1;fontSize=11;endArrow=block;endFill=0;endSize=8;strokeWidth=1;shadow=0;labelBackgroundColor=none;edgeStyle=orthogonalEdgeStyle;" parent="WIyWlLk6GJQsqaUBKTNV-1" edge="1">
          <mxGeometry y="20" relative="1" as="geometry">
            <mxPoint as="offset" />
            <mxPoint x="1059.41" y="120" as="sourcePoint" />
            <mxPoint x="1060.0300000000002" y="170" as="targetPoint" />
          </mxGeometry>
        </mxCell>
        <mxCell id="EXqV8uLEdETQ28XEE5cS-11" value="interested?" style="rhombus;whiteSpace=wrap;html=1;shadow=0;fontFamily=Helvetica;fontSize=12;align=center;strokeWidth=1;spacing=6;spacingTop=-4;" parent="WIyWlLk6GJQsqaUBKTNV-1" vertex="1">
          <mxGeometry x="1010" y="170" width="100" height="80" as="geometry" />
        </mxCell>
        <mxCell id="EXqV8uLEdETQ28XEE5cS-12" value="no :(" style="rounded=0;html=1;jettySize=auto;orthogonalLoop=1;fontSize=11;endArrow=block;endFill=0;endSize=8;strokeWidth=1;shadow=0;labelBackgroundColor=none;edgeStyle=orthogonalEdgeStyle;entryX=1;entryY=0.5;entryDx=0;entryDy=0;" parent="WIyWlLk6GJQsqaUBKTNV-1" edge="1">
          <mxGeometry x="-0.2" y="10" relative="1" as="geometry">
            <mxPoint as="offset" />
            <mxPoint x="1010" y="209.6" as="sourcePoint" />
            <mxPoint x="960" y="209.6" as="targetPoint" />
          </mxGeometry>
        </mxCell>
        <mxCell id="EXqV8uLEdETQ28XEE5cS-31" style="edgeStyle=orthogonalEdgeStyle;rounded=0;orthogonalLoop=1;jettySize=auto;html=1;exitX=0.5;exitY=1;exitDx=0;exitDy=0;entryX=0.5;entryY=0;entryDx=0;entryDy=0;" parent="WIyWlLk6GJQsqaUBKTNV-1" source="EXqV8uLEdETQ28XEE5cS-13" target="EXqV8uLEdETQ28XEE5cS-30" edge="1">
          <mxGeometry relative="1" as="geometry" />
        </mxCell>
        <mxCell id="EXqV8uLEdETQ28XEE5cS-13" value="Hit the X button" style="rounded=1;whiteSpace=wrap;html=1;fontSize=12;glass=0;strokeWidth=1;shadow=0;" parent="WIyWlLk6GJQsqaUBKTNV-1" vertex="1">
          <mxGeometry x="840" y="190" width="120" height="40" as="geometry" />
        </mxCell>
        <mxCell id="EXqV8uLEdETQ28XEE5cS-35" style="edgeStyle=orthogonalEdgeStyle;rounded=0;orthogonalLoop=1;jettySize=auto;html=1;exitX=1;exitY=0.5;exitDx=0;exitDy=0;entryX=0;entryY=0.5;entryDx=0;entryDy=0;" parent="WIyWlLk6GJQsqaUBKTNV-1" source="EXqV8uLEdETQ28XEE5cS-14" target="EXqV8uLEdETQ28XEE5cS-23" edge="1">
          <mxGeometry relative="1" as="geometry">
            <Array as="points">
              <mxPoint x="1480" y="450" />
              <mxPoint x="1480" y="100" />
            </Array>
          </mxGeometry>
        </mxCell>
        <mxCell id="EXqV8uLEdETQ28XEE5cS-14" value="Match!!" style="rounded=1;whiteSpace=wrap;html=1;fontSize=12;glass=0;strokeWidth=1;shadow=0;" parent="WIyWlLk6GJQsqaUBKTNV-1" vertex="1">
          <mxGeometry x="1000" y="430" width="120" height="40" as="geometry" />
        </mxCell>
        <mxCell id="EXqV8uLEdETQ28XEE5cS-15" value="Yes!" style="edgeStyle=orthogonalEdgeStyle;rounded=0;html=1;jettySize=auto;orthogonalLoop=1;fontSize=11;endArrow=block;endFill=0;endSize=8;strokeWidth=1;shadow=0;labelBackgroundColor=none;" parent="WIyWlLk6GJQsqaUBKTNV-1" edge="1">
          <mxGeometry x="-0.2" y="-10" relative="1" as="geometry">
            <mxPoint as="offset" />
            <mxPoint x="1110" y="209.60000000000002" as="sourcePoint" />
            <mxPoint x="1160" y="209.60000000000002" as="targetPoint" />
          </mxGeometry>
        </mxCell>
        <mxCell id="EXqV8uLEdETQ28XEE5cS-26" value="" style="edgeStyle=orthogonalEdgeStyle;rounded=0;orthogonalLoop=1;jettySize=auto;html=1;" parent="WIyWlLk6GJQsqaUBKTNV-1" source="EXqV8uLEdETQ28XEE5cS-18" target="EXqV8uLEdETQ28XEE5cS-14" edge="1">
          <mxGeometry relative="1" as="geometry" />
        </mxCell>
        <mxCell id="EXqV8uLEdETQ28XEE5cS-33" value="Yes!&amp;nbsp;&lt;div&gt;Lets&amp;nbsp;&lt;/div&gt;&lt;div&gt;gooo!!!&lt;/div&gt;" style="edgeLabel;html=1;align=center;verticalAlign=middle;resizable=0;points=[];" parent="EXqV8uLEdETQ28XEE5cS-26" vertex="1" connectable="0">
          <mxGeometry x="-0.0933" y="8" relative="1" as="geometry">
            <mxPoint x="12" y="3" as="offset" />
          </mxGeometry>
        </mxCell>
        <mxCell id="EXqV8uLEdETQ28XEE5cS-18" value="Is it a match?" style="rhombus;whiteSpace=wrap;html=1;shadow=0;fontFamily=Helvetica;fontSize=12;align=center;strokeWidth=1;spacing=6;spacingTop=-4;" parent="WIyWlLk6GJQsqaUBKTNV-1" vertex="1">
          <mxGeometry x="1010" y="290" width="100" height="80" as="geometry" />
        </mxCell>
        <mxCell id="EXqV8uLEdETQ28XEE5cS-29" style="edgeStyle=orthogonalEdgeStyle;rounded=0;orthogonalLoop=1;jettySize=auto;html=1;exitX=0.5;exitY=1;exitDx=0;exitDy=0;entryX=0.5;entryY=0;entryDx=0;entryDy=0;" parent="WIyWlLk6GJQsqaUBKTNV-1" source="EXqV8uLEdETQ28XEE5cS-21" target="EXqV8uLEdETQ28XEE5cS-27" edge="1">
          <mxGeometry relative="1" as="geometry" />
        </mxCell>
        <mxCell id="EXqV8uLEdETQ28XEE5cS-21" value="Hit the Like button" style="rounded=1;whiteSpace=wrap;html=1;fontSize=12;glass=0;strokeWidth=1;shadow=0;" parent="WIyWlLk6GJQsqaUBKTNV-1" vertex="1">
          <mxGeometry x="1160" y="190" width="120" height="40" as="geometry" />
        </mxCell>
        <mxCell id="EXqV8uLEdETQ28XEE5cS-22" value="no" style="rounded=0;html=1;jettySize=auto;orthogonalLoop=1;fontSize=11;endArrow=block;endFill=0;endSize=8;strokeWidth=1;shadow=0;labelBackgroundColor=none;edgeStyle=orthogonalEdgeStyle;entryX=1;entryY=0.5;entryDx=0;entryDy=0;" parent="WIyWlLk6GJQsqaUBKTNV-1" edge="1">
          <mxGeometry x="-0.2" y="10" relative="1" as="geometry">
            <mxPoint as="offset" />
            <mxPoint x="1010" y="329.6" as="sourcePoint" />
            <mxPoint x="960" y="329.6" as="targetPoint" />
          </mxGeometry>
        </mxCell>
        <mxCell id="EXqV8uLEdETQ28XEE5cS-40" style="edgeStyle=orthogonalEdgeStyle;rounded=0;orthogonalLoop=1;jettySize=auto;html=1;" parent="WIyWlLk6GJQsqaUBKTNV-1" source="EXqV8uLEdETQ28XEE5cS-23" edge="1">
          <mxGeometry relative="1" as="geometry">
            <mxPoint x="1600" y="170" as="targetPoint" />
          </mxGeometry>
        </mxCell>
        <mxCell id="EXqV8uLEdETQ28XEE5cS-23" value="List of matches" style="rounded=1;whiteSpace=wrap;html=1;fontSize=12;glass=0;strokeWidth=1;shadow=0;" parent="WIyWlLk6GJQsqaUBKTNV-1" vertex="1">
          <mxGeometry x="1540" y="80" width="120" height="40" as="geometry" />
        </mxCell>
        <mxCell id="EXqV8uLEdETQ28XEE5cS-24" value="sent!" style="edgeStyle=orthogonalEdgeStyle;rounded=0;html=1;jettySize=auto;orthogonalLoop=1;fontSize=11;endArrow=block;endFill=0;endSize=8;strokeWidth=1;shadow=0;labelBackgroundColor=none;" parent="WIyWlLk6GJQsqaUBKTNV-1" edge="1">
          <mxGeometry x="-0.2" y="-10" relative="1" as="geometry">
            <mxPoint as="offset" />
            <mxPoint x="1280" y="209.66" as="sourcePoint" />
            <mxPoint x="1330" y="209.66" as="targetPoint" />
          </mxGeometry>
        </mxCell>
        <mxCell id="EXqV8uLEdETQ28XEE5cS-36" style="edgeStyle=orthogonalEdgeStyle;rounded=0;orthogonalLoop=1;jettySize=auto;html=1;exitX=0.5;exitY=1;exitDx=0;exitDy=0;" parent="WIyWlLk6GJQsqaUBKTNV-1" source="EXqV8uLEdETQ28XEE5cS-25" edge="1">
          <mxGeometry relative="1" as="geometry">
            <mxPoint x="1390" y="250" as="targetPoint" />
          </mxGeometry>
        </mxCell>
        <mxCell id="EXqV8uLEdETQ28XEE5cS-25" value="Like Notification gets sent to recipient" style="rounded=1;whiteSpace=wrap;html=1;fontSize=12;glass=0;strokeWidth=1;shadow=0;" parent="WIyWlLk6GJQsqaUBKTNV-1" vertex="1">
          <mxGeometry x="1330" y="190" width="120" height="40" as="geometry" />
        </mxCell>
        <mxCell id="EXqV8uLEdETQ28XEE5cS-27" value="User can keep scrolling until max Like limit reached" style="rounded=1;whiteSpace=wrap;html=1;fontSize=12;glass=0;strokeWidth=1;shadow=0;" parent="WIyWlLk6GJQsqaUBKTNV-1" vertex="1">
          <mxGeometry x="1160" y="250" width="120" height="40" as="geometry" />
        </mxCell>
        <mxCell id="EXqV8uLEdETQ28XEE5cS-30" value="User has unlimited Dislikes" style="rounded=1;whiteSpace=wrap;html=1;fontSize=12;glass=0;strokeWidth=1;shadow=0;" parent="WIyWlLk6GJQsqaUBKTNV-1" vertex="1">
          <mxGeometry x="840" y="250" width="120" height="40" as="geometry" />
        </mxCell>
        <mxCell id="EXqV8uLEdETQ28XEE5cS-32" value="Disapproved requests can be deleted or kept in Likes queue" style="rounded=1;whiteSpace=wrap;html=1;fontSize=12;glass=0;strokeWidth=1;shadow=0;" parent="WIyWlLk6GJQsqaUBKTNV-1" vertex="1">
          <mxGeometry x="840" y="310" width="120" height="40" as="geometry" />
        </mxCell>
        <mxCell id="EXqV8uLEdETQ28XEE5cS-38" style="edgeStyle=orthogonalEdgeStyle;rounded=0;orthogonalLoop=1;jettySize=auto;html=1;exitX=0.5;exitY=1;exitDx=0;exitDy=0;" parent="WIyWlLk6GJQsqaUBKTNV-1" source="EXqV8uLEdETQ28XEE5cS-37" target="EXqV8uLEdETQ28XEE5cS-18" edge="1">
          <mxGeometry relative="1" as="geometry" />
        </mxCell>
        <mxCell id="EXqV8uLEdETQ28XEE5cS-39" value="Recipients decision gets transferred back" style="edgeLabel;html=1;align=center;verticalAlign=middle;resizable=0;points=[];" parent="EXqV8uLEdETQ28XEE5cS-38" vertex="1" connectable="0">
          <mxGeometry x="-0.0912" y="5" relative="1" as="geometry">
            <mxPoint x="5" y="15" as="offset" />
          </mxGeometry>
        </mxCell>
        <mxCell id="EXqV8uLEdETQ28XEE5cS-37" value="Recipient can chose Like/Dislike" style="rounded=1;whiteSpace=wrap;html=1;fontSize=12;glass=0;strokeWidth=1;shadow=0;" parent="WIyWlLk6GJQsqaUBKTNV-1" vertex="1">
          <mxGeometry x="1330" y="250" width="120" height="40" as="geometry" />
        </mxCell>
        <mxCell id="EXqV8uLEdETQ28XEE5cS-41" value="Matches aren&#39;t required to reply" style="rounded=1;whiteSpace=wrap;html=1;fontSize=12;glass=0;strokeWidth=1;shadow=0;" parent="WIyWlLk6GJQsqaUBKTNV-1" vertex="1">
          <mxGeometry x="1700" y="190" width="120" height="40" as="geometry" />
        </mxCell>
        <mxCell id="EXqV8uLEdETQ28XEE5cS-43" style="edgeStyle=orthogonalEdgeStyle;rounded=0;orthogonalLoop=1;jettySize=auto;html=1;exitX=1;exitY=0.5;exitDx=0;exitDy=0;" parent="WIyWlLk6GJQsqaUBKTNV-1" source="EXqV8uLEdETQ28XEE5cS-42" edge="1">
          <mxGeometry relative="1" as="geometry">
            <mxPoint x="1700" y="210" as="targetPoint" />
          </mxGeometry>
        </mxCell>
        <mxCell id="EXqV8uLEdETQ28XEE5cS-45" value="No" style="edgeLabel;html=1;align=center;verticalAlign=middle;resizable=0;points=[];" parent="EXqV8uLEdETQ28XEE5cS-43" vertex="1" connectable="0">
          <mxGeometry x="-0.4931" y="7" relative="1" as="geometry">
            <mxPoint as="offset" />
          </mxGeometry>
        </mxCell>
        <mxCell id="EXqV8uLEdETQ28XEE5cS-46" style="edgeStyle=orthogonalEdgeStyle;rounded=0;orthogonalLoop=1;jettySize=auto;html=1;exitX=0.5;exitY=1;exitDx=0;exitDy=0;" parent="WIyWlLk6GJQsqaUBKTNV-1" source="EXqV8uLEdETQ28XEE5cS-42" edge="1">
          <mxGeometry relative="1" as="geometry">
            <mxPoint x="1600" y="290" as="targetPoint" />
          </mxGeometry>
        </mxCell>
        <mxCell id="EXqV8uLEdETQ28XEE5cS-48" value="Yes" style="edgeLabel;html=1;align=center;verticalAlign=middle;resizable=0;points=[];" parent="EXqV8uLEdETQ28XEE5cS-46" vertex="1" connectable="0">
          <mxGeometry x="0.0599" y="9" relative="1" as="geometry">
            <mxPoint as="offset" />
          </mxGeometry>
        </mxCell>
        <mxCell id="EXqV8uLEdETQ28XEE5cS-42" value="Want to communicate?" style="rhombus;whiteSpace=wrap;html=1;shadow=0;fontFamily=Helvetica;fontSize=12;align=center;strokeWidth=1;spacing=6;spacingTop=-4;" parent="WIyWlLk6GJQsqaUBKTNV-1" vertex="1">
          <mxGeometry x="1550" y="170" width="100" height="80" as="geometry" />
        </mxCell>
        <mxCell id="EXqV8uLEdETQ28XEE5cS-44" value="Delete or Match or keep in queue for later" style="rounded=1;whiteSpace=wrap;html=1;fontSize=12;glass=0;strokeWidth=1;shadow=0;" parent="WIyWlLk6GJQsqaUBKTNV-1" vertex="1">
          <mxGeometry x="1700" y="310" width="120" height="40" as="geometry" />
        </mxCell>
        <mxCell id="EXqV8uLEdETQ28XEE5cS-49" style="edgeStyle=orthogonalEdgeStyle;rounded=0;orthogonalLoop=1;jettySize=auto;html=1;exitX=1;exitY=0.5;exitDx=0;exitDy=0;" parent="WIyWlLk6GJQsqaUBKTNV-1" source="EXqV8uLEdETQ28XEE5cS-47" edge="1">
          <mxGeometry relative="1" as="geometry">
            <mxPoint x="1700" y="330" as="targetPoint" />
          </mxGeometry>
        </mxCell>
        <mxCell id="EXqV8uLEdETQ28XEE5cS-51" value="No" style="edgeLabel;html=1;align=center;verticalAlign=middle;resizable=0;points=[];" parent="EXqV8uLEdETQ28XEE5cS-49" vertex="1" connectable="0">
          <mxGeometry x="-0.2951" y="7" relative="1" as="geometry">
            <mxPoint as="offset" />
          </mxGeometry>
        </mxCell>
        <mxCell id="EXqV8uLEdETQ28XEE5cS-52" style="edgeStyle=orthogonalEdgeStyle;rounded=0;orthogonalLoop=1;jettySize=auto;html=1;exitX=0.5;exitY=1;exitDx=0;exitDy=0;entryX=0.5;entryY=0;entryDx=0;entryDy=0;" parent="WIyWlLk6GJQsqaUBKTNV-1" source="EXqV8uLEdETQ28XEE5cS-47" target="EXqV8uLEdETQ28XEE5cS-50" edge="1">
          <mxGeometry relative="1" as="geometry" />
        </mxCell>
        <mxCell id="EXqV8uLEdETQ28XEE5cS-53" value="Congrats!" style="edgeLabel;html=1;align=center;verticalAlign=middle;resizable=0;points=[];" parent="EXqV8uLEdETQ28XEE5cS-52" vertex="1" connectable="0">
          <mxGeometry x="0.0067" y="8" relative="1" as="geometry">
            <mxPoint x="22" as="offset" />
          </mxGeometry>
        </mxCell>
        <mxCell id="EXqV8uLEdETQ28XEE5cS-47" value="&lt;div&gt;&lt;br&gt;&lt;/div&gt;Want to join each others band?" style="rhombus;whiteSpace=wrap;html=1;shadow=0;fontFamily=Helvetica;fontSize=12;align=center;strokeWidth=1;spacing=6;spacingTop=-4;" parent="WIyWlLk6GJQsqaUBKTNV-1" vertex="1">
          <mxGeometry x="1550" y="290" width="100" height="80" as="geometry" />
        </mxCell>
        <mxCell id="EXqV8uLEdETQ28XEE5cS-82" style="edgeStyle=orthogonalEdgeStyle;rounded=0;orthogonalLoop=1;jettySize=auto;html=1;exitX=1;exitY=0.5;exitDx=0;exitDy=0;entryX=0;entryY=0.5;entryDx=0;entryDy=0;" parent="WIyWlLk6GJQsqaUBKTNV-1" source="EXqV8uLEdETQ28XEE5cS-50" target="-ekNPSrUyCJ8KPP-WbpY-1" edge="1">
          <mxGeometry relative="1" as="geometry" />
        </mxCell>
        <mxCell id="EXqV8uLEdETQ28XEE5cS-50" value="Both musicians accept invitation requests and their accounts get paired to the group/band page" style="rounded=1;whiteSpace=wrap;html=1;fontSize=12;glass=0;strokeWidth=1;shadow=0;" parent="WIyWlLk6GJQsqaUBKTNV-1" vertex="1">
          <mxGeometry x="1530" y="440" width="140" height="80" as="geometry" />
        </mxCell>
        <mxCell id="EXqV8uLEdETQ28XEE5cS-56" style="edgeStyle=orthogonalEdgeStyle;rounded=0;orthogonalLoop=1;jettySize=auto;html=1;exitX=1;exitY=0.5;exitDx=0;exitDy=0;" parent="WIyWlLk6GJQsqaUBKTNV-1" source="EXqV8uLEdETQ28XEE5cS-54" edge="1">
          <mxGeometry relative="1" as="geometry">
            <mxPoint x="640" y="650" as="targetPoint" />
          </mxGeometry>
        </mxCell>
        <mxCell id="EXqV8uLEdETQ28XEE5cS-58" value="No" style="edgeLabel;html=1;align=center;verticalAlign=middle;resizable=0;points=[];" parent="EXqV8uLEdETQ28XEE5cS-56" vertex="1" connectable="0">
          <mxGeometry x="-0.2108" relative="1" as="geometry">
            <mxPoint y="-10" as="offset" />
          </mxGeometry>
        </mxCell>
        <mxCell id="EXqV8uLEdETQ28XEE5cS-62" style="edgeStyle=orthogonalEdgeStyle;rounded=0;orthogonalLoop=1;jettySize=auto;html=1;exitX=0.5;exitY=1;exitDx=0;exitDy=0;entryX=0.5;entryY=0;entryDx=0;entryDy=0;" parent="WIyWlLk6GJQsqaUBKTNV-1" source="EXqV8uLEdETQ28XEE5cS-54" target="EXqV8uLEdETQ28XEE5cS-61" edge="1">
          <mxGeometry relative="1" as="geometry" />
        </mxCell>
        <mxCell id="EXqV8uLEdETQ28XEE5cS-64" value="Yes" style="edgeLabel;html=1;align=center;verticalAlign=middle;resizable=0;points=[];" parent="EXqV8uLEdETQ28XEE5cS-62" vertex="1" connectable="0">
          <mxGeometry x="-0.1429" y="8" relative="1" as="geometry">
            <mxPoint as="offset" />
          </mxGeometry>
        </mxCell>
        <mxCell id="EXqV8uLEdETQ28XEE5cS-54" value="Already in a band?" style="rhombus;whiteSpace=wrap;html=1;shadow=0;fontFamily=Helvetica;fontSize=12;align=center;strokeWidth=1;spacing=6;spacingTop=-4;" parent="WIyWlLk6GJQsqaUBKTNV-1" vertex="1">
          <mxGeometry x="490" y="610" width="100" height="80" as="geometry" />
        </mxCell>
        <mxCell id="EXqV8uLEdETQ28XEE5cS-60" style="edgeStyle=orthogonalEdgeStyle;rounded=0;orthogonalLoop=1;jettySize=auto;html=1;exitX=1;exitY=0.5;exitDx=0;exitDy=0;entryX=0;entryY=0.75;entryDx=0;entryDy=0;" parent="WIyWlLk6GJQsqaUBKTNV-1" source="EXqV8uLEdETQ28XEE5cS-57" target="EXqV8uLEdETQ28XEE5cS-5" edge="1">
          <mxGeometry relative="1" as="geometry">
            <Array as="points">
              <mxPoint x="810" y="650" />
              <mxPoint x="810" y="110" />
            </Array>
          </mxGeometry>
        </mxCell>
        <mxCell id="EXqV8uLEdETQ28XEE5cS-57" value="No worries. Skip to browse other musicians profiles" style="rounded=1;whiteSpace=wrap;html=1;" parent="WIyWlLk6GJQsqaUBKTNV-1" vertex="1">
          <mxGeometry x="640" y="630" width="120" height="40" as="geometry" />
        </mxCell>
        <mxCell id="EXqV8uLEdETQ28XEE5cS-66" style="edgeStyle=orthogonalEdgeStyle;rounded=0;orthogonalLoop=1;jettySize=auto;html=1;exitX=0;exitY=0.5;exitDx=0;exitDy=0;entryX=1;entryY=0.5;entryDx=0;entryDy=0;" parent="WIyWlLk6GJQsqaUBKTNV-1" source="EXqV8uLEdETQ28XEE5cS-61" target="EXqV8uLEdETQ28XEE5cS-6" edge="1">
          <mxGeometry relative="1" as="geometry" />
        </mxCell>
        <mxCell id="EXqV8uLEdETQ28XEE5cS-67" value="No" style="edgeLabel;html=1;align=center;verticalAlign=middle;resizable=0;points=[];" parent="EXqV8uLEdETQ28XEE5cS-66" vertex="1" connectable="0">
          <mxGeometry x="0.0994" y="-10" relative="1" as="geometry">
            <mxPoint x="-1" as="offset" />
          </mxGeometry>
        </mxCell>
        <mxCell id="EXqV8uLEdETQ28XEE5cS-69" style="edgeStyle=orthogonalEdgeStyle;rounded=0;orthogonalLoop=1;jettySize=auto;html=1;exitX=0.5;exitY=1;exitDx=0;exitDy=0;" parent="WIyWlLk6GJQsqaUBKTNV-1" source="EXqV8uLEdETQ28XEE5cS-61" edge="1">
          <mxGeometry relative="1" as="geometry">
            <mxPoint x="539.6666666666665" y="860" as="targetPoint" />
          </mxGeometry>
        </mxCell>
        <mxCell id="EXqV8uLEdETQ28XEE5cS-61" value="Has every member created an account?" style="rhombus;whiteSpace=wrap;html=1;shadow=0;fontFamily=Helvetica;fontSize=12;align=center;strokeWidth=1;spacing=6;spacingTop=-4;" parent="WIyWlLk6GJQsqaUBKTNV-1" vertex="1">
          <mxGeometry x="485" y="730" width="110" height="90" as="geometry" />
        </mxCell>
        <mxCell id="EXqV8uLEdETQ28XEE5cS-75" style="edgeStyle=orthogonalEdgeStyle;rounded=0;orthogonalLoop=1;jettySize=auto;html=1;exitX=1;exitY=0.5;exitDx=0;exitDy=0;" parent="WIyWlLk6GJQsqaUBKTNV-1" source="EXqV8uLEdETQ28XEE5cS-71" edge="1">
          <mxGeometry relative="1" as="geometry">
            <mxPoint x="640" y="914.7619047619046" as="targetPoint" />
          </mxGeometry>
        </mxCell>
        <mxCell id="EXqV8uLEdETQ28XEE5cS-78" style="edgeStyle=orthogonalEdgeStyle;rounded=0;orthogonalLoop=1;jettySize=auto;html=1;exitX=0.5;exitY=1;exitDx=0;exitDy=0;" parent="WIyWlLk6GJQsqaUBKTNV-1" source="EXqV8uLEdETQ28XEE5cS-71" edge="1">
          <mxGeometry relative="1" as="geometry">
            <mxPoint x="539.6666666666665" y="1010" as="targetPoint" />
          </mxGeometry>
        </mxCell>
        <mxCell id="EXqV8uLEdETQ28XEE5cS-71" value="&lt;div&gt;&lt;span style=&quot;background-color: transparent; color: light-dark(rgb(0, 0, 0), rgb(255, 255, 255));&quot;&gt;Has every&amp;nbsp;&lt;/span&gt;&lt;/div&gt;&lt;div&gt;member joined the band/group page?&lt;/div&gt;" style="rhombus;whiteSpace=wrap;html=1;shadow=0;fontFamily=Helvetica;fontSize=12;align=center;strokeWidth=1;spacing=6;spacingTop=-4;" parent="WIyWlLk6GJQsqaUBKTNV-1" vertex="1">
          <mxGeometry x="475" y="860" width="130" height="110" as="geometry" />
        </mxCell>
        <mxCell id="EXqV8uLEdETQ28XEE5cS-72" value="Yes" style="text;html=1;align=center;verticalAlign=middle;resizable=0;points=[];autosize=1;strokeColor=none;fillColor=none;" parent="WIyWlLk6GJQsqaUBKTNV-1" vertex="1">
          <mxGeometry x="540" y="830" width="40" height="30" as="geometry" />
        </mxCell>
        <mxCell id="EXqV8uLEdETQ28XEE5cS-76" value="Send a band invite to each member" style="rounded=1;whiteSpace=wrap;html=1;" parent="WIyWlLk6GJQsqaUBKTNV-1" vertex="1">
          <mxGeometry x="640" y="895" width="120" height="40" as="geometry" />
        </mxCell>
        <mxCell id="EXqV8uLEdETQ28XEE5cS-77" value="No" style="text;html=1;align=center;verticalAlign=middle;resizable=0;points=[];autosize=1;strokeColor=none;fillColor=none;" parent="WIyWlLk6GJQsqaUBKTNV-1" vertex="1">
          <mxGeometry x="600" y="888" width="40" height="30" as="geometry" />
        </mxCell>
        <mxCell id="EXqV8uLEdETQ28XEE5cS-81" style="edgeStyle=orthogonalEdgeStyle;rounded=0;orthogonalLoop=1;jettySize=auto;html=1;exitX=1;exitY=0.5;exitDx=0;exitDy=0;entryX=0;entryY=0.25;entryDx=0;entryDy=0;" parent="WIyWlLk6GJQsqaUBKTNV-1" source="EXqV8uLEdETQ28XEE5cS-79" target="EXqV8uLEdETQ28XEE5cS-5" edge="1">
          <mxGeometry relative="1" as="geometry" />
        </mxCell>
        <mxCell id="EXqV8uLEdETQ28XEE5cS-79" value="Congrats! you have a band page&amp;nbsp;" style="rounded=1;whiteSpace=wrap;html=1;" parent="WIyWlLk6GJQsqaUBKTNV-1" vertex="1">
          <mxGeometry x="480" y="1010" width="120" height="40" as="geometry" />
        </mxCell>
        <mxCell id="EXqV8uLEdETQ28XEE5cS-80" value="Yes" style="text;html=1;align=center;verticalAlign=middle;resizable=0;points=[];autosize=1;strokeColor=none;fillColor=none;" parent="WIyWlLk6GJQsqaUBKTNV-1" vertex="1">
          <mxGeometry x="530" y="978" width="40" height="30" as="geometry" />
        </mxCell>
      </root>
    </mxGraphModel>
  </diagram>
  <diagram id="L7siL4_XVjIrrBhaUgky" name="Component Diagram">
    <mxGraphModel dx="1050" dy="557" grid="1" gridSize="10" guides="1" tooltips="1" connect="1" arrows="1" fold="1" page="1" pageScale="1" pageWidth="850" pageHeight="1100" math="0" shadow="0">
      <root>
        <mxCell id="0" />
        <mxCell id="1" parent="0" />
        <mxCell id="SL3bV7T4VFeumJx9Ikth-1" value="Browser" style="rounded=0;whiteSpace=wrap;html=1;" vertex="1" parent="1">
          <mxGeometry x="160" y="250" width="120" height="60" as="geometry" />
        </mxCell>
        <mxCell id="SL3bV7T4VFeumJx9Ikth-2" value="Web Server&lt;div&gt;(Flask)&lt;/div&gt;" style="rounded=0;whiteSpace=wrap;html=1;" vertex="1" parent="1">
          <mxGeometry x="360" y="250" width="120" height="60" as="geometry" />
        </mxCell>
        <mxCell id="SL3bV7T4VFeumJx9Ikth-3" value="Data Store&lt;div&gt;TinyDB&lt;/div&gt;" style="shape=cylinder3;whiteSpace=wrap;html=1;boundedLbl=1;backgroundOutline=1;size=15;" vertex="1" parent="1">
          <mxGeometry x="560" y="240" width="70" height="80" as="geometry" />
        </mxCell>
        <mxCell id="SL3bV7T4VFeumJx9Ikth-4" value="Content&lt;div&gt;(html, css)&lt;/div&gt;" style="rounded=0;whiteSpace=wrap;html=1;" vertex="1" parent="1">
          <mxGeometry x="360" y="370" width="120" height="60" as="geometry" />
        </mxCell>
        <mxCell id="SL3bV7T4VFeumJx9Ikth-5" value="" style="endArrow=classic;html=1;rounded=0;" edge="1" parent="1">
          <mxGeometry width="50" height="50" relative="1" as="geometry">
            <mxPoint x="280" y="279.5" as="sourcePoint" />
            <mxPoint x="360" y="279.5" as="targetPoint" />
          </mxGeometry>
        </mxCell>
        <mxCell id="SL3bV7T4VFeumJx9Ikth-6" value="http" style="edgeLabel;html=1;align=center;verticalAlign=middle;resizable=0;points=[];" vertex="1" connectable="0" parent="SL3bV7T4VFeumJx9Ikth-5">
          <mxGeometry x="0.07" y="8" relative="1" as="geometry">
            <mxPoint y="1" as="offset" />
          </mxGeometry>
        </mxCell>
        <mxCell id="SL3bV7T4VFeumJx9Ikth-7" value="" style="endArrow=classic;html=1;rounded=0;" edge="1" parent="1">
          <mxGeometry width="50" height="50" relative="1" as="geometry">
            <mxPoint x="480" y="279.5" as="sourcePoint" />
            <mxPoint x="560" y="279.5" as="targetPoint" />
          </mxGeometry>
        </mxCell>
        <mxCell id="SL3bV7T4VFeumJx9Ikth-8" value="Local&lt;div&gt;Function&lt;/div&gt;" style="edgeLabel;html=1;align=center;verticalAlign=middle;resizable=0;points=[];" vertex="1" connectable="0" parent="SL3bV7T4VFeumJx9Ikth-7">
          <mxGeometry x="0.07" y="8" relative="1" as="geometry">
            <mxPoint y="1" as="offset" />
          </mxGeometry>
        </mxCell>
        <mxCell id="SL3bV7T4VFeumJx9Ikth-11" value="" style="endArrow=classic;html=1;rounded=0;" edge="1" parent="1">
          <mxGeometry width="50" height="50" relative="1" as="geometry">
            <mxPoint x="419.5" y="310" as="sourcePoint" />
            <mxPoint x="419.5" y="370" as="targetPoint" />
          </mxGeometry>
        </mxCell>
        <mxCell id="SL3bV7T4VFeumJx9Ikth-12" value="File System" style="edgeLabel;html=1;align=center;verticalAlign=middle;resizable=0;points=[];" vertex="1" connectable="0" parent="SL3bV7T4VFeumJx9Ikth-11">
          <mxGeometry x="0.07" y="8" relative="1" as="geometry">
            <mxPoint y="1" as="offset" />
          </mxGeometry>
        </mxCell>
      </root>
    </mxGraphModel>
  </diagram>
</mxfile>
